<svg id="visual" viewBox="0 0 900 600" width="900" height="600" xmlns="http://www.w3.org/2000/svg" xmlns:xlink="http://www.w3.org/1999/xlink" version="1.1"><rect x="0" y="0" width="900" height="600" fill="#003545"></rect><path d="M0 435L150 448L300 402L450 448L600 441L750 385L900 402L900 601L750 601L600 601L450 601L300 601L150 601L0 601Z" fill="#003545"></path><path d="M0 411L150 413L300 463L450 427L600 479L750 464L900 406L900 601L750 601L600 601L450 601L300 601L150 601L0 601Z" fill="#0e414d"></path><path d="M0 493L150 472L300 496L450 504L600 448L750 461L900 446L900 601L750 601L600 601L450 601L300 601L150 601L0 601Z" fill="#1d4d54"></path><path d="M0 519L150 538L300 485L450 537L600 540L750 541L900 484L900 601L750 601L600 601L450 601L300 601L150 601L0 601Z" fill="#2c595b"></path><path d="M0 573L150 538L300 544L450 573L600 548L750 537L900 573L900 601L750 601L600 601L450 601L300 601L150 601L0 601Z" fill="#3c6562"></path></svg>