<svg id="visual" viewBox="0 0 900 600" width="900" height="600" xmlns="http://www.w3.org/2000/svg" xmlns:xlink="http://www.w3.org/1999/xlink" version="1.1"><rect x="0" y="0" width="900" height="600" fill="#003545"></rect><defs><linearGradient id="grad1_0" x1="33.3%" y1="0%" x2="100%" y2="100%"><stop offset="20%" stop-color="#003545" stop-opacity="1"></stop><stop offset="80%" stop-color="#003545" stop-opacity="1"></stop></linearGradient></defs><defs><linearGradient id="grad2_0" x1="0%" y1="0%" x2="66.7%" y2="100%"><stop offset="20%" stop-color="#003545" stop-opacity="1"></stop><stop offset="80%" stop-color="#003545" stop-opacity="1"></stop></linearGradient></defs><g transform="translate(900, 0)"><path d="M0 297.5C-34.9 260.6 -69.9 223.7 -117.5 203.5C-165.1 183.3 -225.5 179.9 -257.6 148.7C-289.7 117.6 -293.6 58.8 -297.5 0L0 0Z" fill="#3C6562"></path></g><g transform="translate(0, 600)"><path d="M0 -297.5C48.8 -284.6 97.6 -271.7 143.5 -248.5C189.4 -225.4 232.4 -191.9 257.6 -148.7C282.8 -105.6 290.1 -52.8 297.5 0L0 0Z" fill="#3C6562"></path></g></svg>