<svg id="visual" viewBox="0 0 900 600" width="900" height="600" xmlns="http://www.w3.org/2000/svg" xmlns:xlink="http://www.w3.org/1999/xlink" version="1.1"><rect x="0" y="0" width="900" height="600" fill="#092732"></rect><g transform="translate(465.3051837872762 302.9618430305803)"><path d="M152.1 -217.9C186.7 -184.3 197 -125.8 209.8 -71.7C222.5 -17.5 237.8 32.3 232.5 83.9C227.2 135.4 201.5 188.7 159.3 216.6C117.2 244.6 58.6 247.3 0.9 246.1C-56.8 244.9 -113.6 239.7 -159.8 213.1C-205.9 186.4 -241.3 138.2 -256.2 85C-271.1 31.8 -265.3 -26.3 -237.6 -66.5C-209.8 -106.8 -160 -129.3 -116.8 -160C-73.5 -190.8 -36.7 -229.9 11 -245.1C58.8 -260.2 117.6 -251.5 152.1 -217.9" fill="#3a6969"></path></g></svg>